<svg xmlns="http://www.w3.org/2000/svg" width="1200" height="620" viewBox="0 0 1200 620" role="img" aria-labelledby="title desc">
  <title id="title">Framebuffer Object render workflow</title>
  <desc id="desc">A visual walkthrough of rendering into an off-screen framebuffer texture and sampling it on the screen pass.</desc>
  <defs>
    <linearGradient id="screen" x1="0" y1="0" x2="1" y2="1">
      <stop offset="0" stop-color="#14324a"/>
      <stop offset="1" stop-color="#1d6f8d"/>
    </linearGradient>
    <linearGradient id="texture" x1="0" y1="0" x2="1" y2="1">
      <stop offset="0" stop-color="#8bd3ff"/>
      <stop offset="0.55" stop-color="#f0ca50"/>
      <stop offset="1" stop-color="#df5b57"/>
    </linearGradient>
    <filter id="shadow" x="-10%" y="-10%" width="120%" height="120%">
      <feDropShadow dx="0" dy="12" stdDeviation="12" flood-color="#0b1720" flood-opacity="0.18"/>
    </filter>
  </defs>
  <rect width="1200" height="620" fill="#f7fafc"/>
  <text x="72" y="78" font-family="Inter, Arial, sans-serif" font-size="34" font-weight="700" fill="#17212b">Framebuffer pass, then screen pass</text>
  <text x="72" y="114" font-family="Inter, Arial, sans-serif" font-size="18" fill="#52616f">Render once into a texture, then use that texture in a second shader pass.</text>

  <g filter="url(#shadow)">
    <rect x="72" y="178" width="332" height="272" rx="18" fill="#ffffff" stroke="#d8e1e8"/>
    <text x="104" y="226" font-family="Inter, Arial, sans-serif" font-size="22" font-weight="700" fill="#1d2a35">1. Off-screen target</text>
    <rect x="104" y="258" width="268" height="142" rx="12" fill="#e9f4fb" stroke="#aac7d8"/>
    <rect x="132" y="288" width="92" height="82" rx="8" fill="url(#texture)"/>
    <rect x="246" y="288" width="92" height="82" rx="8" fill="#1f2933" opacity="0.86"/>
    <text x="142" y="419" font-family="Inter, Arial, sans-serif" font-size="15" fill="#52616f">color texture</text>
    <text x="253" y="419" font-family="Inter, Arial, sans-serif" font-size="15" fill="#52616f">depth buffer</text>
  </g>

  <path d="M430 314 C490 314 508 314 568 314" fill="none" stroke="#49758f" stroke-width="4" stroke-linecap="round"/>
  <path d="M568 314 L546 300 L546 328 Z" fill="#49758f"/>
  <text x="456" y="286" font-family="Inter, Arial, sans-serif" font-size="15" font-weight="700" fill="#34566a">sample texture</text>

  <g filter="url(#shadow)">
    <rect x="594" y="178" width="332" height="272" rx="18" fill="#ffffff" stroke="#d8e1e8"/>
    <text x="626" y="226" font-family="Inter, Arial, sans-serif" font-size="22" font-weight="700" fill="#1d2a35">2. Screen framebuffer</text>
    <rect x="626" y="258" width="268" height="142" rx="12" fill="url(#screen)"/>
    <circle cx="707" cy="329" r="42" fill="#8bd3ff" opacity="0.9"/>
    <circle cx="782" cy="329" r="42" fill="#f0ca50" opacity="0.9"/>
    <circle cx="857" cy="329" r="42" fill="#df5b57" opacity="0.9"/>
    <text x="672" y="419" font-family="Inter, Arial, sans-serif" font-size="15" fill="#52616f">post-process quad</text>
  </g>

  <g filter="url(#shadow)">
    <rect x="970" y="178" width="158" height="272" rx="18" fill="#ffffff" stroke="#d8e1e8"/>
    <text x="1001" y="226" font-family="Inter, Arial, sans-serif" font-size="22" font-weight="700" fill="#1d2a35">API</text>
    <text x="1002" y="272" font-family="SFMono-Regular, Menlo, monospace" font-size="14" fill="#34566a">bind()</text>
    <text x="1002" y="306" font-family="SFMono-Regular, Menlo, monospace" font-size="14" fill="#34566a">resize()</text>
    <text x="1002" y="340" font-family="SFMono-Regular, Menlo, monospace" font-size="14" fill="#34566a">readPixels()</text>
    <text x="1002" y="374" font-family="SFMono-Regular, Menlo, monospace" font-size="14" fill="#34566a">dispose()</text>
  </g>

  <rect x="72" y="506" width="1056" height="56" rx="14" fill="#e9f4fb" stroke="#c6d9e7"/>
  <text x="104" y="541" font-family="SFMono-Regular, Menlo, monospace" font-size="17" fill="#1d4d64">fbo.bind() -> draw scene -> fbo.unbind() -> bind fbo.texture -> draw fullscreen quad</text>
</svg>
